<svg width="1728" height="1117" viewBox="0 0 1728 1117" fill="none" xmlns="http://www.w3.org/2000/svg">
<g clip-path="url(#clip0_106_35)">
<rect width="1728" height="1117" fill="black"/>
<g style="mix-blend-mode:hard-light">
<circle cx="1301" cy="559" r="248" fill="#9D9D9D"/>
</g>
<g style="mix-blend-mode:hard-light">
<circle cx="1290" cy="952" r="248" fill="#9D9D9D"/>
</g>
<g style="mix-blend-mode:hard-light">
<circle cx="191.5" cy="925.5" r="315.5" fill="#9D9D9D"/>
</g>
<g style="mix-blend-mode:hard-light">
<path d="M1360 214C1360 350.967 1248.97 462 1112 462C975.033 462 864 350.967 864 214C864 77.0334 975.033 -34 1112 -34C1248.97 -34 1360 77.0334 1360 214Z" fill="#9D9D9D"/>
</g>
<path d="M1061 166C1061 186.435 1044.43 203 1024 203C1003.57 203 987 186.435 987 166C987 145.565 1003.57 129 1024 129C1044.43 129 1061 145.565 1061 166ZM995.467 166C995.467 181.759 1008.24 194.533 1024 194.533C1039.76 194.533 1052.53 181.759 1052.53 166C1052.53 150.241 1039.76 137.467 1024 137.467C1008.24 137.467 995.467 150.241 995.467 166Z" fill="#797979"/>
<path d="M1046 149.443C1046 169.878 1029.43 186.443 1009 186.443C988.565 186.443 972 169.878 972 149.443C972 129.009 988.565 112.443 1009 112.443C1029.43 112.443 1046 129.009 1046 149.443ZM980.467 149.443C980.467 165.202 993.241 177.976 1009 177.976C1024.76 177.976 1037.53 165.202 1037.53 149.443C1037.53 133.685 1024.76 120.91 1009 120.91C993.241 120.91 980.467 133.685 980.467 149.443Z" fill="white"/>
<path d="M1404 897.557C1404 917.991 1387.43 934.557 1367 934.557C1346.57 934.557 1330 917.991 1330 897.557C1330 877.122 1346.57 860.557 1367 860.557C1387.43 860.557 1404 877.122 1404 897.557ZM1338.47 897.557C1338.47 913.315 1351.24 926.09 1367 926.09C1382.76 926.09 1395.53 913.315 1395.53 897.557C1395.53 881.798 1382.76 869.023 1367 869.023C1351.24 869.023 1338.47 881.798 1338.47 897.557Z" fill="#797979"/>
<path d="M1389 881C1389 901.434 1372.43 918 1352 918C1331.57 918 1315 901.434 1315 881C1315 860.565 1331.57 844 1352 844C1372.43 844 1389 860.565 1389 881ZM1323.47 881C1323.47 896.758 1336.24 909.533 1352 909.533C1367.76 909.533 1380.53 896.758 1380.53 881C1380.53 865.241 1367.76 852.466 1352 852.466C1336.24 852.466 1323.47 865.241 1323.47 881Z" fill="white"/>
<rect x="1326" y="248" width="12" height="84" fill="white"/>
<path d="M1371.93 282L1371.95 294L1290.01 294.086L1290 282.086L1371.93 282Z" fill="white"/>
<rect x="1110" y="560.193" width="12" height="84" transform="rotate(-50.0068 1110 560.193)" fill="white"/>
<path d="M1167.57 548L1176.77 555.703L1124.18 618.528L1114.98 610.826L1167.57 548Z" fill="white"/>
<rect x="1134" y="1052.19" width="12" height="84" transform="rotate(-50.0068 1134 1052.19)" fill="white"/>
<path d="M1191.57 1040L1200.77 1047.7L1148.18 1110.53L1138.98 1102.83L1191.57 1040Z" fill="white"/>
<path d="M1462.5 453L1422 476L1462.5 508L1422 530.5L1462.5 560L1422 587.5L1462.5 616L1422 640.5" stroke="white" stroke-width="8"/>
<circle cx="1629" cy="192" r="10" fill="white"/>
<circle cx="1660" cy="192" r="10" fill="white"/>
<circle cx="1691" cy="192" r="10" fill="white"/>
<circle cx="1629" cy="223" r="10" fill="white"/>
<circle cx="1660" cy="223" r="10" fill="white"/>
<circle cx="1691" cy="223" r="10" fill="white"/>
<circle cx="1629" cy="254" r="10" fill="white"/>
<circle cx="1660" cy="254" r="10" fill="white"/>
<circle cx="1691" cy="254" r="10" fill="white"/>
<circle cx="1629" cy="316" r="10" fill="white"/>
<circle cx="1660" cy="316" r="10" fill="white"/>
<circle cx="1691" cy="316" r="10" fill="white"/>
<circle cx="1629" cy="347" r="10" fill="white"/>
<circle cx="1660" cy="347" r="10" fill="white"/>
<circle cx="1691" cy="347" r="10" fill="white"/>
<circle cx="1629" cy="378" r="10" fill="white"/>
<circle cx="1660" cy="378" r="10" fill="white"/>
<circle cx="1691" cy="378" r="10" fill="white"/>
<circle cx="1629" cy="285" r="10" fill="white"/>
<circle cx="1660" cy="285" r="10" fill="white"/>
<circle cx="1691" cy="285" r="10" fill="white"/>
<circle cx="36" cy="878" r="10" fill="white"/>
<circle cx="67" cy="878" r="10" fill="white"/>
<circle cx="98" cy="878" r="10" fill="white"/>
<circle cx="36" cy="909" r="10" fill="white"/>
<circle cx="67" cy="909" r="10" fill="white"/>
<circle cx="98" cy="909" r="10" fill="white"/>
<circle cx="36" cy="940" r="10" fill="white"/>
<circle cx="67" cy="940" r="10" fill="white"/>
<circle cx="98" cy="940" r="10" fill="white"/>
<circle cx="36" cy="1002" r="10" fill="white"/>
<circle cx="67" cy="1002" r="10" fill="white"/>
<circle cx="98" cy="1002" r="10" fill="white"/>
<circle cx="36" cy="1033" r="10" fill="white"/>
<circle cx="67" cy="1033" r="10" fill="white"/>
<circle cx="98" cy="1033" r="10" fill="white"/>
<circle cx="36" cy="971" r="10" fill="white"/>
<circle cx="67" cy="971" r="10" fill="white"/>
<circle cx="98" cy="971" r="10" fill="white"/>
</g>
<defs>
<clipPath id="clip0_106_35">
<rect width="1728" height="1117" fill="white"/>
</clipPath>
</defs>
</svg>
