<svg width="38" height="38" viewBox="0 0 24 24" fill="none" xmlns="http://www.w3.org/2000/svg">
<path d="M12 22C17.523 22 22 17.523 22 12C22 6.477 17.523 2 12 2C6.477 2 2 6.477 2 12C2 17.523 6.477 22 12 22Z" stroke="black" stroke-width="1.5" stroke-linecap="round" stroke-linejoin="round"/>
<path d="M14.333 18.9999V17.1369C14.358 16.8269 14.315 16.5169 14.207 16.2239C14.0983 15.9307 13.9278 15.6643 13.707 15.4429C15.8 15.2159 18 14.4429 18 10.8989C17.9981 9.98792 17.6391 9.11404 17 8.46487C17.3042 7.67297 17.2826 6.79291 16.94 6.01687C16.94 6.01687 16.153 5.78987 14.333 6.97787C12.8038 6.57473 11.1962 6.57473 9.66702 6.97787C7.84702 5.78987 7.06002 6.01787 7.06002 6.01787C6.71799 6.79333 6.69642 7.67257 7.00002 8.46387C6.35653 9.11785 5.99716 9.99938 6.00002 10.9169C6.00002 14.4359 8.20002 15.2079 10.293 15.4609C10.0747 15.6804 9.90558 15.9439 9.79702 16.2339C9.68924 16.5217 9.6449 16.8293 9.66702 17.1359V18.9999" stroke="black" stroke-width="1.5" stroke-linecap="round" stroke-linejoin="round"/>
<path d="M9.667 17.7019C7.667 18.3329 6 17.7019 5 15.7539" stroke="black" stroke-width="1.5" stroke-linecap="round" stroke-linejoin="round"/>
</svg>
