<!-- <svg width="38" height="38" viewBox="0 0 38 37" fill="none" xmlns="http://www.w3.org/2000/svg">
<path d="M27.4166 20.9358V27.2053H23.6842V21.3547C23.6842 19.8861 23.1443 18.8839 21.7928 18.8839C20.7617 18.8839 20.1469 19.5588 19.8769 20.2134C19.7794 20.4474 19.7533 20.773 19.7533 21.0986V27.2053H16.0192C16.0192 27.2053 16.0697 17.2983 16.0192 16.2723H19.7533V17.8206L19.7289 17.8562H19.7533V17.8206C20.2497 17.0744 21.1344 16.0146 23.1182 16.0146C25.5739 16.0146 27.4166 17.5781 27.4166 20.9358ZM12.1126 11C10.836 11 10 11.8174 10 12.8891C10 13.9406 10.8116 14.78 12.0639 14.78H12.0882C13.391 14.78 14.2009 13.9389 14.2009 12.8891C14.1765 11.8174 13.391 11 12.1126 11ZM10.2212 27.2053H13.9553V16.2723H10.2212V27.2053Z" fill="white"/>
<path d="M18.8333 34.6667C27.5781 34.6667 34.6667 27.5781 34.6667 18.8333C34.6667 10.0886 27.5781 3 18.8333 3C10.0886 3 3 10.0886 3 18.8333C3 27.5781 10.0886 34.6667 18.8333 34.6667Z" stroke="white" stroke-width="1.5" stroke-linecap="round" stroke-linejoin="round"/>
</svg> -->
<svg width="64px" height="64px" stroke-width="0.8" viewBox="0 0 24 24" fill="none" xmlns="http://www.w3.org/2000/svg" color="#000000"><path d="M21 8v8a5 5 0 01-5 5H8a5 5 0 01-5-5V8a5 5 0 015-5h8a5 5 0 015 5zM7 17v-7" stroke="#000000" stroke-width="0.8" stroke-linecap="round" stroke-linejoin="round"></path><path d="M11 17v-3.25M11 10v3.75m0 0c0-3.75 6-3.75 6 0V17M7 7.01l.01-.011" stroke="#000000" stroke-width="0.8" stroke-linecap="round" stroke-linejoin="round"></path></svg>