<!-- <svg width="400" height="400" viewBox="0 0 400 400" fill="none" xmlns="http://www.w3.org/2000/svg">
<path d="M335 343.43H65V300.06C65 254.02 102.33 216.69 148.37 216.69H251.63C297.67 216.69 335 254.02 335 300.06V343.43Z" stroke="#191919" stroke-width="12" stroke-miterlimit="10" stroke-linecap="round" stroke-linejoin="round"/>
<path d="M200 186.57C235.899 186.57 265 157.468 265 121.57C265 85.6713 235.899 56.5698 200 56.5698C164.101 56.5698 135 85.6713 135 121.57C135 157.468 164.101 186.57 200 186.57Z" stroke="#6A0BFF" stroke-width="12" stroke-miterlimit="10" stroke-linecap="round" stroke-linejoin="round"/>
</svg> -->
<svg width="24px" height="24px" stroke-width="1.5" viewBox="0 0 24 24" fill="none" xmlns="http://www.w3.org/2000/svg" color="#000000"><path d="M5 20v-1a7 7 0 017-7v0a7 7 0 017 7v1M12 12a4 4 0 100-8 4 4 0 000 8z" stroke="#000000" stroke-width="1.5" stroke-linecap="round" stroke-linejoin="round"></path></svg>
